<svg id="Capa_1" enable-background="new 0 0 490.003 490.003" height="512" viewBox="0 0 490.003 490.003" width="512" xmlns="http://www.w3.org/2000/svg"><g><path d="m384.559 44.876h-279.115l3.767-28.56c1.227-9.34 9.177-16.316 18.595-16.316h234.391c9.418 0 17.368 6.976 18.605 16.317z" fill="#465a61"/><path d="m347.917 44.876h-242.473l3.767-28.56c1.227-9.34 9.177-16.316 18.595-16.316h197.739c9.418 0 17.368 6.976 18.605 16.317z" fill="#596c76"/><path d="m401.945 127.117h-313.887c-8.082 0-14.425-6.93-13.71-14.981l4.705-53.024c.712-8.06 7.458-14.236 15.55-14.236h300.808c8.082 0 14.827 6.176 15.539 14.236l4.705 53.024c.714 8.051-5.629 14.981-13.71 14.981z" fill="#465a61"/><path d="m380.332 127.117h-292.274c-8.082 0-14.425-6.93-13.71-14.981l4.705-53.024c.712-8.06 7.458-14.236 15.55-14.236h264.156c8.082 0 14.827 6.176 15.55 14.236z" fill="#596c76"/><path d="m400.511 127.113-37.92 347.63c-.95 8.68-8.28 15.26-17.01 15.26h-201.15c-8.74 0-16.07-6.58-17.02-15.26l-37.92-347.63z" fill="#fedba6"/><path d="m364.491 127.113-37.92 347.63c-.94 8.68-8.28 15.26-17.01 15.26h-165.13c-8.74 0-16.07-6.58-17.02-15.26l-37.92-347.63z" fill="#ffefd2"/><path d="m393.243 193.84-20.369 186.559-3.176 29.151h-249.394l-3.175-29.151-20.369-186.559z" fill="#008b81"/><path d="m357.215 193.84-20.358 186.559-3.176 29.151h-213.377l-3.175-29.151-20.369-186.559z" fill="#01998d"/><path d="m291.121 322.733-21.84 23.47c-9.47 10.18-22.33 15.33-35.21 15.33-5.73 0-11.46-1.02-16.91-3.07-3.46-1.29-6.81-3.01-9.97-5.15-2.04-1.38-4.01-2.94-5.88-4.68s-3.57-3.59-5.09-5.54c-14.39-18.3-13.71-44.87 2.66-62.43l21.84-23.47c5.25-5.64 11.54-9.74 18.3-12.26 14.3-5.35 30.7-3.71 43.79 5.15 2.05 1.38 4.01 2.94 5.88 4.68s3.57 3.59 5.1 5.54c14.381 18.31 13.7 44.86-2.67 62.43z" fill="#883f2e"/><path d="m257.288 322.732-21.847 23.468c-5.245 5.64-11.531 9.735-18.277 12.265-5.716-2.135-11.115-5.421-15.857-9.834-19.449-18.091-20.533-48.534-2.431-67.972l21.847-23.468c5.245-5.64 11.542-9.735 18.299-12.254 5.705 2.136 11.093 5.41 15.835 9.823 19.449 18.102 20.533 48.534 2.431 67.972z" fill="#a44f3e"/><g><path d="m245.831 311.823-38.64 41.49c-2.04-1.38-4.01-2.94-5.88-4.68s-3.57-3.59-5.09-5.54l38.63-41.5c2.82-3.03 7.57-3.2 10.6-.37 3.031 2.82 3.2 7.56.38 10.6z" fill="#eb9c8d"/></g><g><path d="m293.792 260.303-23.78 25.54c-1.48 1.59-3.49 2.39-5.49 2.39-1.83 0-3.67-.66-5.11-2.01-3.04-2.82-3.21-7.57-.38-10.6l23.78-25.54c2.05 1.38 4.01 2.94 5.88 4.68 1.869 1.74 3.569 3.59 5.1 5.54z" fill="#eb9c8d"/></g></g></svg>