<?xml version="1.0" encoding="iso-8859-1"?>
<!-- Generator: Adobe Illustrator 19.0.0, SVG Export Plug-In . SVG Version: 6.00 Build 0)  -->
<svg version="1.1" id="Capa_1" xmlns="http://www.w3.org/2000/svg" xmlns:xlink="http://www.w3.org/1999/xlink" x="0px" y="0px"
	 viewBox="0 0 512.002 512.002" style="enable-background:new 0 0 512.002 512.002;" xml:space="preserve">
<path style="fill:#FFC299;" d="M356.56,226.873l-25.602,75.152l-8.957,26.295l-5.161,15.163l-11.409,33.492l-5.161,15.163
	l-11.676,34.302l-5.161,15.152l-11.676,34.281l-5.161,15.163l-5.171,15.182c-2.627,7.712-13.535,7.711-16.161-0.001l-9.59-28.168
	v-0.011l-6.846-20.078l-15.632-45.914v-0.011l-6.973-20.483v-0.011l-15.493-45.498l-6.942-20.355l-8.36-24.567l-25.282-74.245
	H356.56V226.873z"/>
<g>
	<path style="fill:#FF9A55;" d="M356.556,226.871l-25.597,75.154c-4.041,0.51-8.157,0.776-12.336,0.776
		c-23.842,0-45.696-8.667-62.594-23.002c-0.447,0.383-0.893,0.755-1.34,1.127c-17.207,14.091-38.986,21.864-61.308,21.864
		c-6.136,0-12.134-0.574-17.951-1.67l-25.278-74.25h206.404V226.871z"/>
	<path style="fill:#FF9A55;" d="M322.002,328.32l-5.161,15.163c-0.192-0.064-0.384-0.139-0.565-0.213l-122.367-52.365
		c-4.052-1.738-5.939-6.44-4.201-10.492c1.738-4.063,6.44-5.95,10.503-4.212L322.002,328.32z"/>
</g>
<path style="fill:#8FE5D8;" d="M336.249,90.323c0,4.595-0.346,9.115-1.013,13.537c-4.36,29-22.516,53.492-47.576,66.572
	c-12.475,6.521-26.678,10.202-41.734,10.202c-7.386,0-14.562-0.889-21.429-2.557c-34.175-8.312-60.73-36.065-67.313-70.87
	c-1.038-5.471-1.581-11.116-1.581-16.884c0-11.017,1.964-21.565,5.583-31.322C173.92,24.554,207.045,0,245.926,0
	s72.006,24.554,84.74,59.001C334.285,68.758,336.249,79.306,336.249,90.323z"/>
<path style="fill:#63CEC1;" d="M330.357,103.748c-27.716,0-53.109,10.066-72.735,26.728c-19.626-16.661-45.019-26.728-72.723-26.728
	c-9.56,0-18.848,1.198-27.716,3.458c6.583,34.805,33.138,62.558,67.313,70.87c6.867,1.667,14.043,2.557,21.429,2.557
	c15.056,0,29.259-3.681,41.734-10.202c25.06-13.08,43.216-37.572,47.576-66.572C333.618,103.785,331.988,103.748,330.357,103.748z"
	/>
<path style="fill:#FFA6B7;" d="M330.666,59.001h-44.34c-6.139,0-11.116,4.977-11.116,11.116v3.699
	c0,7.002-5.676,12.678-12.678,12.678l0,0c-7.002,0-12.678-5.676-12.678-12.678V54.801c0-6.596-5.347-11.943-11.943-11.943l0,0
	c-6.596,0-11.943,5.347-11.943,11.943V97.82c0,6.139-4.977,11.116-11.116,11.116l0,0c-6.139,0-11.116-4.977-11.116-11.116V70.117
	c0-6.139-4.977-11.116-11.116-11.116h-31.433C173.92,24.554,207.045,0,245.926,0S317.932,24.554,330.666,59.001z"/>
<path style="fill:#FFC988;" d="M271.14,205.89c0,24.278-11.124,45.962-28.564,60.212c-13.399,10.975-30.532,17.547-49.195,17.547
	c-42.953,0-77.77-34.817-77.77-77.759c0-42.953,34.817-77.77,77.77-77.77c18.663,0,35.796,6.583,49.195,17.547
	C260.017,159.928,271.14,181.611,271.14,205.89z"/>
<path style="fill:#FFB64D;" d="M271.14,205.89c0,24.278-11.124,45.962-28.564,60.212c-13.134-16.537-20.961-37.465-20.961-60.212
	c0-22.758,7.838-43.686,20.961-60.223C260.017,159.928,271.14,181.611,271.14,205.89z"/>
<circle style="fill:#C4C8F7;" cx="318.62" cy="205.89" r="77.77"/>
<g>
	<path style="fill:#A6AEF2;" d="M345.532,187.922h-1.452c-4.417,0-7.997-3.58-7.997-7.997s3.58-7.997,7.997-7.997h1.452
		c4.417,0,7.997,3.58,7.997,7.997S349.948,187.922,345.532,187.922z"/>
	<path style="fill:#A6AEF2;" d="M361.514,210.711h-1.452c-4.417,0-7.997-3.58-7.997-7.997s3.58-7.997,7.997-7.997h1.452
		c4.417,0,7.997,3.58,7.997,7.997S365.931,210.711,361.514,210.711z"/>
</g>
<path style="fill:#FFB64D;" d="M170.874,251.001h-1.452c-4.417,0-7.997-3.58-7.997-7.997c0-4.417,3.58-7.997,7.997-7.997h1.452
	c4.417,0,7.997,3.58,7.997,7.997C178.872,247.421,175.291,251.001,170.874,251.001z"/>
<g>
	<path style="fill:#FF9A55;" d="M305.432,376.974l-5.161,15.163c-0.181-0.053-0.352-0.117-0.522-0.192l-61.994-26.103
		c-4.073-1.717-5.982-6.398-4.265-10.471s6.398-5.982,10.471-4.265L305.432,376.974z"/>
	<path style="fill:#FF9A55;" d="M217.154,348.494c-1.28,3.06-4.254,4.894-7.368,4.894c-1.034,0-2.09-0.203-3.103-0.629
		l-15.952-6.718l-6.942-20.355l29.099,12.337C216.962,339.729,218.871,344.421,217.154,348.494z"/>
	<path style="fill:#FF9A55;" d="M288.595,426.439l-5.161,15.152c-0.181-0.064-0.363-0.128-0.533-0.203l-69.703-29.344v-0.011
		l-6.973-20.483c3.316,1.471,5.939,2.644,6.942,3.124L288.595,426.439z"/>
	<path style="fill:#FF9A55;" d="M271.759,475.872l-5.161,15.163c-0.181-0.053-0.352-0.117-0.533-0.192l-30.389-12.795v-0.011
		l-6.846-20.078L271.759,475.872z"/>
</g>
<path style="fill:#C4C8F7;" d="M278.973,244.247v37.525c0,10.814,8.767,19.581,19.581,19.581l0,0
	c10.814,0,19.581-8.767,19.581-19.581v-0.418c0-5.287,4.286-9.573,9.573-9.573l0,0c5.287,0,9.573,4.286,9.573,9.573v39.233
	c0,9.58,7.766,17.347,17.347,17.347l0,0c9.58,0,17.347-7.766,17.347-17.347V218.938L278.973,244.247z"/>
<g>
</g>
<g>
</g>
<g>
</g>
<g>
</g>
<g>
</g>
<g>
</g>
<g>
</g>
<g>
</g>
<g>
</g>
<g>
</g>
<g>
</g>
<g>
</g>
<g>
</g>
<g>
</g>
<g>
</g>
</svg>
